<svg width="537" height="361" viewBox="0 0 537 361" fill="none" xmlns="http://www.w3.org/2000/svg">
<path d="M514.452 4.06L518.5 0L528.788 65.5L536.98 112.604V119.5L512.404 102.364L506.26 120.796L498.068 139.228L485.78 161.756L465.3 192.476C465.3 192.476 449.652 212.94 438.676 225.244C425.123 240.437 417.207 248.785 401.812 262.108C388.869 273.309 366.996 288.732 366.996 288.732L334.228 309.212C334.228 309.212 316 320.5 303.508 325.596C290.919 330.732 260.5 341.98 260.5 341.98L235.924 350.172C235.924 350.172 211.149 356.326 194.964 358.364C178.779 360.402 169.5 360.5 150 360.5C130.5 360.5 122.5 360.5 105 360.5C87.5 360.5 73.208 357.987 57 355C40.792 352.013 21.5 345.5 16.5 343C12.2991 340.9 0 335.5 0 335.5C0 335.5 10.5838 337.762 19 339C27.4162 340.238 45.125 341.981 62 343C78.875 344.019 127 341.5 127 341.5L184.724 335.836L221.588 325.596L254.356 313.308L287.124 296.924C287.124 296.924 307.572 286.478 319.892 278.492C332.212 270.506 352.66 253.916 352.66 253.916L377.236 231.388C377.236 231.388 391.47 218.135 399.764 208.86C408.058 199.585 426.388 174.044 426.388 174.044L442.772 147.42L461.204 108.508L469.396 88.028L471.444 81.884H441.5L455.06 67.548L473.492 47.068L496.02 24.54L510.356 8.156L514.452 4.06Z" fill="#E07620"/>
</svg>
